<svg xmlns="http://www.w3.org/2000/svg" viewBox="0 0 32 32"><path d="M1 1v4.244l2.648 2.562.122.118v7.868C5.182 17.634 7.204 19.349 9.964 21c2.82-1.69 4.858-3.48 6.268-5.355V7.924l.12-.118L19 5.246V1h-2.453v2.877h-2.745V1H11.35v2.877H8.63V1H6.175v2.877h-2.72V1zm2.357 4.267h6.656v6.488H5.3V7.127l-1.943-1.86m6.68 6.538H14.7v3.135c-1.038 1.405-2.573 2.748-4.665 3.993z"/><path d="M22.536 15a2.03 2.03 0 0 1 1.961 1.509 2.03 2.03 0 0 1 2.714 1.363 2.03 2.03 0 0 1 2.193.454c.381.384.596.904.596 1.447v4.09a6.15 6.15 0 0 1-1.79 4.34A6.1 6.1 0 0 1 23.894 30h-1.358c-2.082 0-3.407-.66-4.543-1.794l-2.444-2.455-.024-.026a2.05 2.05 0 0 1 .075-2.82 2.03 2.03 0 0 1 2.186-.45v-4.046c0-.542.215-1.062.597-1.446a2.03 2.03 0 0 1 2.19-.454A2.032 2.032 0 0 1 22.536 15m0 1.364a.68.68 0 0 0-.68.681v4.432a.68.68 0 0 1-.678.682.68.68 0 0 1-.678-.682V18.41a.684.684 0 0 0-.679-.682.68.68 0 0 0-.679.682v5.172l.48.482a.685.685 0 0 1 0 .965.677.677 0 0 1-.96 0l-.673-.677-.015-.016-.483-.485-.103-.078a.68.68 0 0 0-1.031.564.68.68 0 0 0 .17.47l2.422 2.433.338.313c.805.691 1.746 1.084 3.249 1.084h1.357a4.74 4.74 0 0 0 3.358-1.398 4.79 4.79 0 0 0 1.392-3.374v-4.091a.684.684 0 0 0-.679-.682.68.68 0 0 0-.678.682v2.045a.68.68 0 0 1-.679.682.68.68 0 0 1-.679-.682V18.41a.684.684 0 0 0-.678-.682.68.68 0 0 0-.679.682v2.727a.68.68 0 0 1-.678.682.68.68 0 0 1-.679-.682v-4.09a.685.685 0 0 0-.678-.682"/></svg>
