<svg xmlns="http://www.w3.org/2000/svg" viewBox="0 0 32 32"><path d="M1 1v4.244l2.648 2.562.122.118v7.868C5.182 17.634 7.204 19.349 9.964 21c2.82-1.69 4.858-3.48 6.268-5.355V7.924l.12-.118L19 5.246V1h-2.453v2.877h-2.745V1H11.35v2.877H8.63V1H6.175v2.877h-2.72V1zm2.357 4.267h6.656v6.488H5.3V7.127l-1.943-1.86m6.68 6.538H14.7v3.135c-1.038 1.405-2.573 2.748-4.665 3.993zM19.705 15.26a.889.889 0 0 1 1.257 1.257l-2.927 2.927h7.187a5.78 5.78 0 0 1 4.085 1.693 5.8 5.8 0 0 1 1.254 1.873 5.78 5.78 0 0 1-3.127 7.55c-.7.291-1.453.44-2.212.44h-3.11a.889.889 0 0 1 0-1.778h3.11a4 4 0 0 0 2.828-1.172 4 4 0 0 0 .868-4.36 4 4 0 0 0-3.696-2.468h-7.187l2.927 2.927a.889.889 0 0 1-1.257 1.257l-4.445-4.444a.89.89 0 0 1 0-1.257z"/></svg>
