<svg xmlns="http://www.w3.org/2000/svg" viewBox="0 0 32 32"><path d="M3.972 5.875 2.954 13.55H5.25V5.875zm2.403 0v7.675H8.75V5.875zm3.5 0v7.675h3.542v-1.1h5.791v1.1h3.542V5.875zm14 0v7.675h2.375V5.875zm3.5 0v7.675h2.296l-1.018-7.675zm-12.833 7.7v6.575h3.541v-6.575zm1.77.725c.31 0 .607.106.825.294a.94.94 0 0 1 .342.712c0 .18-.056.357-.162.511a1.1 1.1 0 0 1-.442.37v2.325H15.75v-2.325a1.1 1.1 0 0 1-.442-.37.9.9 0 0 1-.162-.511c0-.267.123-.523.342-.712.218-.188.515-.294.825-.294m-13.437.375v7.995l1.208 1.14v-9.135zm2.333 0v9.875h22.209v-9.875h-8.209v6.6h-5.791v-6.6zm23.334 0v9.134l1.208-1.14v-7.994zM2.875 24.216v2.534h2.688zm26.875 0-2.688 2.534h2.688zM6.063 25.675l1.14 1.075h18.22l1.14-1.075z"/></svg>
