<svg xmlns="http://www.w3.org/2000/svg" viewBox="0 0 18 18"><path d="M11 2.846c0 .49-.21.96-.586 1.306-.375.346-.884.54-1.414.54-.53 0-1.04-.194-1.414-.54A1.777 1.777 0 0 1 7 2.846c0-.49.21-.96.586-1.305C7.96 1.194 8.47 1 9 1c.53 0 1.04.194 1.414.54.375.347.586.817.586 1.306ZM11 9c0 .49-.21.96-.586 1.305-.375.347-.884.541-1.414.541-.53 0-1.04-.194-1.414-.54A1.777 1.777 0 0 1 7 9c0-.49.21-.96.586-1.305.375-.347.884-.541 1.414-.541.53 0 1.04.194 1.414.54C10.79 8.042 11 8.51 11 9Zm0 6.154c0 .49-.21.96-.586 1.305C10.04 16.805 9.53 17 9 17c-.53 0-1.04-.195-1.414-.54A1.777 1.777 0 0 1 7 15.153c0-.49.21-.96.586-1.306.375-.346.884-.54 1.414-.54.53 0 1.04.194 1.414.54.375.347.586.816.586 1.306Z" /></svg>
