<svg xmlns="http://www.w3.org/2000/svg" viewBox="0 0 32 32"><path d="M25.313 1.313c-1.334.608-3.64 1.083-4.568 3.014-1.398.122-4.547.667-7.64 2.516-3.63 2.17-7.25 6.088-8.235 13.356l-.03.221-.173.14c-1.93 1.563-2.542 2.434-2.776 3.823-.222 1.306-.046 3.216-.023 6.367h18.967c.216-1.056.652-1.828.78-2.598.146-.886.011-1.871-1.301-3.66-2.693-3.667-2.929-8.09-.808-10.704-.54-.173-.943-.43-1.216-.784-.382-.495-.462-1.063-.535-1.618l1.115-.147c.07.528.149.867.31 1.077.163.21.458.405 1.223.53l-.002.007.011-.01.375.588c1.247 1.96 2.678 3.206 4.583 3.403l.407.042.086.4c.17.802.539 1.193.944 1.39.406.196.89.184 1.28.013.582-.256.907-.71 1.043-1.42.133-.69.035-1.614-.32-2.632-2.097-2.39-2.78-5.454-3.995-8.048-.378-.621-.778-1.157-1.274-1.553.322-1.268.925-2.535 1.771-3.713M13.692 2.498c-2.158.006-4.25.506-7.38 1.476 1.947.62 4.4 1.181 5.378 2.438q.419-.284.838-.535a19.9 19.9 0 0 1 6.765-2.503c-2.241-.592-3.94-.88-5.601-.876m-3.557 3.859h-.213c-1.897.023-3.943.61-6.04 1.955 1.7.23 3.417.233 4.536.963a17.4 17.4 0 0 1 3.168-2.792 9.5 9.5 0 0 0-1.451-.126m13.178 1.955a.826.826 0 1 1 0 1.652.826.826 0 0 1 0-1.652M8.38 9.317c-2.275.093-4.307.408-6.548 1.548 2.078.443 3.182.844 4.064 2.114a17.7 17.7 0 0 1 2.484-3.662M4.97 12.904c-1.312.012-2.37.73-3.657 1.409 1.74 0 2.879.24 3.669.753q.407-1.092.9-2.058a4 4 0 0 0-.912-.104m-.04 2.301c-1.12.365-2.215.447-3.388 1.393 1.1.29 2.174.6 2.587 1.377q.329-1.478.802-2.77m23.135.536q.15-.003.299.011l-.103 1.12c-.245-.022-.344.027-.348.03-.003.003-.065.04-.04.368l-1.121.085c-.04-.521.08-1.013.434-1.312.266-.224.576-.296.879-.302m-24.49 2.742c-.646.008-1.484.353-2.165.77.76.427.772 1.468.559 2.355.456-.57 1.053-1.145 1.822-1.78q.095-.66.22-1.287a1.4 1.4 0 0 0-.435-.058"/></svg>
