<svg xmlns="http://www.w3.org/2000/svg" viewBox="0 0 32 32"><path d="M4.02 4c.94 1.17 2.25 2.04 3.66 2.33.69.14 1.45.12 2.22.2.76.08 1.53.19 2.29.39s1.57.48 2.27 1.09c.37.35.57.61.82.89l.75.83 2.762 2.771L23.27 8.02l-1.43-.37 4.34-1.83-1.82 4.34-.38-1.43-4.482 4.48 2.642 2.65 1.73 1.56c.66.69.96 1.51 1.18 2.28.2.77.33 1.56.4 2.32.08.77.06 1.56.2 2.25.27 1.44 1.15 2.78 2.33 3.73-.54-.33-1.02-.68-1.56-1.18-1.71-1.5-3.29-3.1-4.94-4.66a266.235 266.235 0 0 1-5.545-5.387L12.35 20.36v1.011l-.1.17-2.19 2.19.01-1.79-1.79.04 2.32-2.32.18.01c.29.03.58.03.85 0l3.6-3.605a233.386 233.386 0 0 1-5-5.165C8.61 9.18 6.9 7.5 5.36 5.7c-.54-.58-.95-1.08-1.34-1.7Zm12.633 12.055c1.825 1.834 3.63 3.662 5.387 5.555 1.19 1.28 2.39 2.57 3.55 3.88-.18-.34-.33-.7-.46-1.08-.24-.77-.3-1.53-.47-2.26-.16-.73-.36-1.45-.62-2.11-.27-.66-.63-1.27-1.08-1.64l-1.83-1.31c-.519-.39-1.668-1.472-2.858-2.652l-1.619 1.617ZM6.44 6.32c1.47 1.32 2.92 2.67 4.35 4.02 1.744 1.635 3.454 3.328 5.154 5.01l1.62-1.62c-1.229-1.244-2.374-2.465-2.764-3l-.66-.93c-.21-.31-.44-.66-.61-.85-.38-.44-1-.78-1.66-1.03-.66-.27-1.37-.45-2.09-.6-.72-.18-1.48-.23-2.24-.48-.38-.14-.76-.31-1.1-.52Z" /></svg>
