<svg xmlns="http://www.w3.org/2000/svg" viewBox="0 0 32 32"><path d="M23.075 5.216 19.22 9.888 18.05 6.384l-1.287 3.504c.15.08.3.168.45.25-.994.068-2.013.362-3.02.918 8.882 0 14.02 9.344 7.476 16.35 1.069-.725 1.925-1.53 2.594-2.38l-.02.05 3.388 1.162-1.637-3.5H30.2L26.813 20.4l4.318-2.337-4.437-1.17 4.206-4.668-5.606 1.169 2.919-5.844-5.725 3.506zM9 6.731c-.1 0-.212.044-.375.138l-.125.069h-.144c-2.378 0-4.923 1.018-6.819 4.3-.183 1.537.216 2.187.724 3.03.463.776 1.022 1.713 1.053 3.238 1.42-.025 3.274-.225 5.142-1.98L7.163 8.337l4.48 4.2c.263-.32.538-.55.745-.732.206-.18.343-.312.437-.5-1.194-.775-1.875-2.15-2.506-3.175-.35-.568-.688-1.03-.95-1.23-.138-.1-.225-.163-.331-.17zm-.15 4.707.806 4.475-.206.206c-1.2 1.2-2.45 1.819-3.592 2.144l3.08 4.475 1.756 3.5c.631.287 1.731.218 3.025-.094l-.225-2.238 2.081 1.663c3.694-1.356 7.881-4.088 7.731-6.338-1.518-3.243-5.43-6.487-8.693-3.243-.888 1.03-1.394 2.18-1.907 4.212.107-2.05.12-3.206.75-4.244l-1.062-2.575a2 2 0 0 0-.156.263l-.332.662z"/></svg>
