<svg xmlns="http://www.w3.org/2000/svg" viewBox="0 0 32 32"><path d="M6.145 1.525c-.703 0-1.26.558-1.26 1.26 0 .436.215.814.545 1.04L2.514 31.202h1.174L6.59 3.961c.477-.178.812-.631.812-1.176a1.25 1.25 0 0 0-1.257-1.26m1.494 3.293L6.316 17.242l5.79 1.22 4.01-12.124zm8.6 4.893L12.226 21.84l3.642.69-.238-3.618 1.69 1.87 1.162-.49.706 2.866 5.169.977-2.128-4.277 1.866-.791 1.44 2.035 2.656.011.117 1.118 2.437-1.524-2.238-.533-.496-1.854-2.861-.15.204-1.928-2.214-1.213.939-1.943 1.754-1.334v-.006zm11.866.59.133 2.158-3.201 1.457 4.486.274 1.014-.983-1.293-2.145zm-.279 5.304 2.195 2.852 1.155-1.602zm-6.154.516 1.55.088.327 1.484-3.135.567zm-.252 4.793.748 1.201-2.316.139.318-.994zm4.992 1.031-1.095 1.825 2.482 2.044 2.555-.693-2.518-1.242z"/></svg>
