
<svg xmlns="http://www.w3.org/2000/svg" viewBox="0 0 24 24"><path d="M12 .997a2.004 2.004 0 0 1 1.967 1.634l1.05 5.556a1.003 1.003 0 0 0 .798.796l5.554 1.051A2.004 2.004 0 0 1 23.003 12a2.003 2.003 0 0 1-1.633 1.967v-.001l-5.556 1.05a1 1 0 0 0-.797.799l-1.051 5.554A2.002 2.002 0 0 1 12 23.003a2.002 2.002 0 0 1-1.966-1.633l-1.05-5.556a1.002 1.002 0 0 0-.797-.797L2.63 13.966A2.002 2.002 0 0 1 .997 12a2.001 2.001 0 0 1 1.464-1.926l.17-.04 5.556-1.05a1.001 1.001 0 0 0 .796-.797l1.051-5.556.04-.17A2.001 2.001 0 0 1 12 .997ZM4 17a3 3 0 1 1 0 6 3 3 0 0 1 0-6Zm6.95-8.441a3.001 3.001 0 0 1-2.392 2.39L3 12l5.559 1.052a3.002 3.002 0 0 1 2.39 2.39L12 21.001l1.052-5.559a3 3 0 0 1 2.39-2.39L21.001 12l-5.559-1.052a3.005 3.005 0 0 1-2.39-2.39L12 3l-1.052 5.559ZM4 19a1 1 0 1 0 0 2 1 1 0 0 0 0-2ZM20 1a1 1 0 0 1 1 1v1h1a1 1 0 0 1 0 2h-1v1a1 1 0 0 1-2 0V5h-1a1 1 0 0 1 0-2h1V2a1 1 0 0 1 1-1Z"/></svg>
