<svg xmlns="http://www.w3.org/2000/svg" viewBox="0 0 18 18"><path d="M8.994 0C13.968 0 18 4.03 18 9s-4.032 9-9.006 9A9.01 9.01 0 0 1 .38 11.625l3.408 1.405c.169.768.698 1.44 1.476 1.764A2.5 2.5 0 0 0 8.72 12.42l3.15-2.252.077.002a3.427 3.427 0 0 0 3.421-3.426 3.426 3.426 0 0 0-3.42-3.424 3.426 3.426 0 0 0-3.422 3.424h.003l.001.045-2.204 3.2a2.47 2.47 0 0 0-1.476.41L.01 8.407v.001l-.003-.006A9.005 9.005 0 0 1 8.994 0Z"/><path d="M5.54 10.685a1.917 1.917 0 0 1 2.462 1.068c.196.476.194 1-.003 1.474l-.083.18a1.926 1.926 0 0 1-2.435.86 1.925 1.925 0 0 1-.992-.946l1.115.461a1.422 1.422 0 0 0 1.546-.305 1.42 1.42 0 0 0-.456-2.316l-1.154-.476Z"/><path d="M11.951 4.465a2.286 2.286 0 0 1 2.28 2.281 2.283 2.283 0 0 1-2.28 2.281 2.286 2.286 0 0 1-2.28-2.28 2.284 2.284 0 0 1 2.28-2.282Zm.004.563a1.715 1.715 0 0 0-1.21 2.925c.32.321.756.502 1.21.503a1.715 1.715 0 0 0 1.712-1.714c0-.946-.768-1.713-1.712-1.714Z" /></svg>
