<svg xmlns="http://www.w3.org/2000/svg" viewBox="0 0 32 32"><path d="m21.76 2-11.582.024L2 10.238l.024 11.582L10.238 30l11.582-.024L30 21.76l-.024-11.582zm-.477 1.171 7.52 7.49.023 10.623-7.334 7.364-.155.154-10.623.024-7.52-7.489-.023-10.623 7.49-7.52zm-.446 1.073-9.73.02-6.863 6.897.02 9.73 6.897 6.863 9.73-.018 6.863-6.9-.018-9.729zM7.205 13.282c.316 0 .643.03.977.077q.508.072 1.043.215v1.221a5 5 0 0 0-.93-.321 3.8 3.8 0 0 0-.858-.108q-.535-.002-.79.15a.49.49 0 0 0-.255.458q0 .23.17.364c.117.083.327.16.63.22l.632.125q.966.197 1.377.59.403.402.405 1.126-.001.956-.566 1.43-.57.465-1.74.465-.546 0-1.103-.108a6.4 6.4 0 0 1-1.108-.31V17.62q.554.295 1.07.447c.346.096.682.143.998.143q.492 0 .75-.16a.52.52 0 0 0 .263-.465.52.52 0 0 0-.179-.423q-.177-.145-.703-.263l-.578-.125q-.87-.186-1.273-.596c-.266-.268-.399-.637-.399-1.096q0-.865.558-1.328.559-.473 1.609-.471m11.183 0q1.393 0 2.186.804.794.793.793 2.205.002 1.401-.793 2.204-.794.797-2.186.799c-.93 0-1.656-.269-2.187-.799q-.793-.803-.792-2.204c0-.942.262-1.674.792-2.205q.794-.804 2.187-.804m-8.454.107h5.338v1.126h-1.918v4.665h-1.496v-4.665H9.934zm12.261 0h2.479q1.1.001 1.692.495.597.482.595 1.394.002.913-.595 1.406c-.394.322-.96.488-1.692.488h-.99v2.008h-1.489zm-3.807.977q-.687-.002-1.06.507c-.25.333-.376.81-.376 1.418q0 .91.375 1.418.374.5 1.06.5.688 0 1.061-.5c.25-.34.376-.81.376-1.418s-.125-1.085-.376-1.418q-.373-.508-1.06-.507m5.297.108v1.614h.828c.292 0 .512-.071.673-.208q.232-.216.232-.602c0-.256-.077-.459-.232-.596-.16-.143-.381-.208-.673-.208z"/></svg>
