<svg xmlns="http://www.w3.org/2000/svg" viewBox="0 0 32 32"><path d="M14.888 2c.787 4.42 2.165 7.468 3.493 10.047l-7.715 7.715c-.104-1.47.115-3.055.693-4.615q-.175.22-.335.444c-1.368 1.905-1.943 3.911-1.89 5.703L7.776 22.65a5.5 5.5 0 0 1-.049-.735c0-2.463.604-4.337 1.474-6.135.428-.885.92-1.752 1.438-2.66 1.563-2.751 3.35-5.894 4.25-11.121M17.545 26.39c-2.86 1.226-5.256.655-6.75-.885l-.904.904c1.36 1.186 3.194 1.896 4.997 1.896 3.6 0 7.021-2.532 7.021-6.028 0-2.468-.633-4.414-1.537-6.35L12.2 24.1a5.93 5.93 0 0 0 2.444 1.91c.92.384 1.921.466 2.901.38M29 6.158l-1.794-1.794L3 28.568l1.794 1.794z"/></svg>
