<svg xmlns="http://www.w3.org/2000/svg" viewBox="0 0 32 32"><path d="M10.983 2c-.608.966-1.296 1.97-2.412 2.92l.081.078 1.363-.024-.204.62q-.045.132-.097.263.242.168.513.335l1.45.887-2.661-.046a6 6 0 0 1-.365.42c.509.667 1.275 1.315 2.238 1.897l-.718-.021-.001.328c.494.368 1.03.72 1.572 1.07 1.047-.67 1.839-1.418 2.286-2.177l-3.319.057 1.45-.887a9.6 9.6 0 0 0 1.335-.976c-.295-.317-.52-.634-.651-.966l-.234-.592 1.721-.106c-1.309-.838-2.623-1.77-3.347-3.08m13.575.765c-.378.75-.803 1.679-1.368 2.582.632 1.063 1.413 2.083 2.706 3.031l1.182.867-3.038-.063c.402.702 1.153 1.554 2 2.317 1.109.998 2.369 1.885 3.12 2.31l.656.37v-.808c-.993-.69-1.722-1.492-2.101-2.441l-.238-.596 2.523-.15c-.573-.252-1.143-.478-1.662-.697-.492-.208-.94-.412-1.315-.65-.376-.239-.7-.518-.86-.923l-.227-.576 2.088-.184c-1.403-1.17-2.733-2.821-3.466-4.389m-18.545.332C5.29 4.408 3.975 5.34 2.666 6.177l1.72.106-.233.593c-.276.701-.973 1.396-1.92 2.133a79 79 0 0 0-.022 1.026c0 .003.011.064.017.181.002.043.002.184.004.253l.8.046v.031l-.226.566c-.069.171-.145.351-.241.534l.667-.408c2.162-1.323 2.917-2.786 3.9-4.33l-.014.369.259-.109a4 4 0 0 1-.192-.477l-.204-.62 1.538.027c-1.173-.973-1.88-2.007-2.506-3m10.36 1.529c-.626.993-1.334 2.027-2.507 3l1.538-.026-.204.62c-.385 1.167-1.317 2.192-2.596 3.06l1.036.67 1.058.04-.24.608c-.133.339-.31.66-.52.963l.505-.358c1.037-.734 2.128-1.591 2.997-2.403.58-.542 1.04-1.072 1.336-1.5l-2.924-.215.954-.739c.6-.464 1.214-.922 1.79-1.399-.896-.65-1.709-1.39-2.224-2.321m5.385.04c-.739 1.55-2.097 2.663-3.42 3.674l1.816.133-.185.563c-.26.793-.983 1.586-1.897 2.44a28 28 0 0 1-2.077 1.732l2.851.202-.188.566c-.652 1.956-2.71 3.294-4.387 4.374.78.466 1.601.893 2.304 1.291 3.954 1.09 8.54.404 11.625-.925-.763-.437-1.38-.842-1.894-1.332-.684-.649-1.162-1.444-1.527-2.556l-.174-.533 3.007-.382a22 22 0 0 1-2.191-1.726c-1.164-1.048-2.222-2.199-2.541-3.36l-.165-.598 1.613.033c-1.226-1.161-1.941-2.4-2.57-3.597M7.445 8.143c-.625.994-1.333 2.028-2.506 3l1.538-.026-.204.62c-.477 1.446-1.792 2.672-3.566 3.655l3.064.116-.24.607C4.893 17.742 3.81 19.18 2 20.258c4.275 1.306 9.06 1.826 13.4-.207-.747-.408-1.557-.848-2.334-1.363-1.045-.693-1.998-1.49-2.413-2.53l-.238-.595 2.8-.166a27 27 0 0 1-1.941-1.353c-.94-.733-1.682-1.394-1.969-2.121l-.234-.593 1.721-.106c-1.309-.837-2.622-1.769-3.347-3.08m-2.344 3.924-2.836.049-.029.038c-.016 1.244-.026 1.932-.029 2.452 1.35-.755 2.365-1.64 2.894-2.539m6.114.718q.285.259.628.528.307.238.644.48c.315-.3.584-.61.793-.93zm2.41 1.182a7 7 0 0 1-.343.376c.536.358 1.096.709 1.642 1.03l1.02.604c.657-.545 1.224-1.124 1.576-1.734zm16.19.598-3.956.503c.27.662.581 1.143 1 1.562l-.012-.556a17 17 0 0 0 2.974-.426c-.004-.415-.005-.718-.005-1.083M15.7 16.177l-3.842.228c.226.3.526.597.874.886q.556.112 1.125.202a28 28 0 0 0 1.843-1.316m-12.715.153-.017 2.061a6.9 6.9 0 0 0 1.437-2.007zm23.952 3.85c-.826.265-1.708.486-2.626.65l.321 7.647h2.487zm-10.521.405q-.232.122-.464.234l-.054 6.612h3.048l-.14-6.393a15.6 15.6 0 0 1-2.39-.453m6.974.387c-.873.115-1.77.177-2.672.173l-.022 8.086h3.041zm-20.447.53L2.89 28.1h2.56l.115-6.04a27 27 0 0 1-2.622-.559m10.11.362q-1.005.248-2.02.364l.227 3.83h1.913zm-6.564.326-.145 7.67 4.206-.132-.44-7.419a20 20 0 0 1-3.621-.119"/></svg>
