<svg xmlns="http://www.w3.org/2000/svg" viewBox="0 0 32 32"><path d="M18.252 1.562c-2.446.03-4.983.956-7.312 2.871h5.029v2.7c3.297-1.86 7.162-1.975 10.246.002l-1.137.607 4.043 3.17-.234-5.207-1.65.883c-2.175-3.226-5.36-4.985-8.743-5.026zm-16.75 4.04v13.296H14.8V5.601zm3.143 1.626h8.529v8.684h-1.17V8.396h-7.36zm.209 2.383 5.63 5.74-.834.819-5.63-5.74zm12.916 3.86v13.298h13.297V13.471zm3.14 1.628h8.53v8.682h-1.168v-7.514H20.91zm.21 2.381 5.632 5.743-.834.816-5.633-5.74zM3.71 21.46l.234 5.207 1.457-.78c3.808 5.54 10.625 6.656 16.227 2.051h-5.027v-2.699c-3.255 1.836-7.063 1.972-10.127.074l1.277-.683z"/></svg>
