
<svg xmlns="http://www.w3.org/2000/svg" viewBox="0 0 32 32"><path d="M18.494 1.562c2.616.031 5.112 1.09 7.115 3.06l2.507-2.506a1.25 1.25 0 1 1 1.768 1.768l-2.671 2.67q.013.016.024.034l1.65-.883.234 5.207-3.513-2.754-5.311 5.313h10.77v13.298H17.77V15.998l-9.986 9.984c2.797 1.157 6.012.84 8.817-.743v2.7h5.027c-5.1 4.191-11.204 3.641-15.13-.67l-2.614 2.615a1.25 1.25 0 1 1-1.768-1.768l1.812-1.812-.218-4.844 2.837 2.225 4.787-4.787H1.502V5.602L14.8 5.6v9.832l9.296-9.297c-2.627-.844-5.55-.457-8.127.997v-2.7H10.94c2.33-1.915 4.866-2.841 7.312-2.871zm1.791 16.737 5.633 5.74.834-.816-5.632-5.742zm.625-3.2v1.168h7.361v7.514h1.17V15.1zm-16.89-4.67 5.63 5.74.834-.818-5.63-5.74zm.625-3.201-.001 1.168h7.36v7.516h1.17V7.228z"/></svg>
