<svg xmlns="http://www.w3.org/2000/svg" viewBox="0 0 32 32"><path d="M17.344 1.494c-.799.01-1.64.16-2.522.475-1.885 3.456-4.27 7.556-7.857 11.156-1.325 1.329-2.452 2.809-3.268 4.27.081.394.312.727.67 1.087.687.69 1.929 1.351 3.412 2.078 2.895 1.419 6.706 3.15 9.149 6.78l12.226.002c-1.262-4.427-6.267-6.32-9.941-5.247l-.014.006q-.15.059-.31.098l-.004.002c-.554.138-1.177.105-1.82-.026-1.55-.313-3.298-1.23-3.835-2.855-1.788-5.417 1.041-11.234 4.885-13.955 1.442-1.02 3.066-1.615 4.655-1.53l.027.003c-1.512-1.422-3.333-2.372-5.453-2.344m5.11 3.5c-1.202 0-2.464.474-3.665 1.324-3.415 2.418-6.04 7.814-4.45 12.635.321.97 1.704 1.823 2.956 2.076.626.127 1.201.095 1.482-.017.14-.057.199-.116.225-.16.026-.046.05-.105.015-.274-.567-2.76-.17-5.288 1.409-7.154 1.474-1.742 3.922-2.842 7.338-3.168-.939-2.947-2.342-4.452-3.832-5.002a4.2 4.2 0 0 0-1.479-.26M3.048 18.701c-.338.785-.571 1.547-.682 2.262.449 1.735 3.244 3.464 5.694 3.834.106-.374.364-.718.642-.89 3.188 1.802 5.386 3.793 6.375 6.312h14.35c.043-.601.027-1.17-.04-1.71l-12.769-.001h-.32l-.172-.272c-2.213-3.473-5.87-5.161-8.861-6.627-1.496-.733-2.824-1.396-3.727-2.303a3.7 3.7 0 0 1-.49-.605"/></svg>
