<svg xmlns="http://www.w3.org/2000/svg" viewBox="0 0 162 124"><path d="M35.305 11.827c5.643 0 7.877.092 8.637.323 3.294.97 5.643 3.276 6.91 6.713.437 1.178.53 4.384.16 5.745-.852 3.183-2.556 6.343-2.35 4.29.117-1.038-.597-3.898-1.403-5.56-1.89-3.944-5.643-6.136-12.184-7.15-2.856-.438-3.662-.509-5.758-.439-1.267.046-2.58.138-2.925.207-.147.028-.317.063-.486.098-.255.053-.51.106-.689.134-2.625.46-6.771 2.79-8.683 4.89-2.855 3.16-4.882 7.289-5.62 11.512-.068.369-.184.945-.253 1.268-.276 1.292-.414 3.023-.437 5.306-.023 7.567 1.727 13.45 5.55 18.64 3.294 4.476 7.946 7.568 13.405 8.93 1.428.345 2.625.575 2.671.529.185-.178.208-18.087.046-20.51-.207-2.952-.713-4.451-2.533-7.542-.851-1.429-1.542-2.628-1.543-2.676 0-.254 21.65-.323 24.53-.07 4.904.415 8.083 1.707 10.8 4.43 1.405 1.408 3.11 4.569 3.478 6.46.06.258.118.535.167.769.048.224.087.409.11.499.138.53.115 3.967-.047 4.845-.552 3.322-2.533 7.22-5.09 10.08-.555.6-1.093 1.216-1.612 1.847-.834.979-1.679 1.947-2.533 2.907-.392.438-.506.738-.369.922.115.162 1.084 1.36 2.166 2.7a423.837 423.837 0 0 1 4.444 5.744l1.07 1.423c1.66 2.213 1.754 2.34 3.237 4.138.32.397.663.817.96 1.182.321.395.59.725.722.893 1.06 1.315 6.034 6.252 7.116 7.082.645.485 1.244.946 1.313 1.061.07.093.415.07.737-.091.553-.254.622-.393.622-1.57.023-.715.023-12.019.023-25.1l.023-23.83.76.6c1.359 1.014 2.74 3.206 2.994 4.683.026.146.055.32.085.5.05.304.102.621.145.838.046.374.162 6.001.23 12.526.346 32.344.553 48.356.646 49.601.046.484.16.576.737.576h.69l.024-7.152c.138-27.796.53-55.546.783-56.75.115-.509.668-1.893 1.243-3.046 1.014-2.006 1.083-2.1 1.682-1.938.437.115.645.346.714.854.184 1.075.16 54.05-.023 57.651-.23 4.498-.507 6.482-1.912 13.334-.184.969-.391 2.03-.46 2.33-.185 1.084-.76 2.422-1.866 4.36l-.266.471c-.428.762-.656 1.167-.887 1.17-.263.002-.53-.519-1.102-1.633a98.659 98.659 0 0 0-.325-.631c-1.382-2.607-2.694-6.69-3.109-9.596l-.484-3.807c-.07-.509-.184-3-.253-5.537-.092-3.53-.207-4.683-.46-4.96-.254-.254-.968-.346-2.926-.37-4.583-.068-7.922-1.568-11.561-5.282-2.048-2.073-2.28-2.376-5.06-5.988l-.007-.01c-4.4-5.79-5.16-6.852-6.22-8.674-2.44-4.245-4.63-5.514-9.511-5.468-1.36 0-2.58.07-2.74.116-.14.07-.23.323-.161.6.091.507.091 4.498 0 9.712-.093 4.614.321 6.805 1.796 9.597.83 1.615 1.404 2.377 2.786 3.737l1.106 1.107H26.323l1.658-1.73c1.866-1.915 3.017-4.037 3.685-6.69.323-1.338.392-2.838.438-8.836 0-3.945-.046-7.198-.115-7.22l-.07-.011-.14-.02a180.5 180.5 0 0 1-3.154-.5c-10.041-1.569-15.384-3.9-20.359-8.86-3.616-3.598-6.218-8.49-7.14-13.426l-.171-.892c-.118-.615-.236-1.23-.312-1.6-.092-.53-.162-2.815-.139-5.074.07-4.407.507-7.383 1.682-10.89 2.88-8.674 9.19-14.902 17.665-17.394 2.58-.76 3.201-.877 6.587-1.27.69-.068 4.698-.137 8.867-.137Zm46.845 22.36c.115-.115 7.048.091 8.545.253 4.468.53 15.546 3.137 17.619 4.153 1.082.53 2.764 2.1 5.873 5.467.668.738 1.313 1.338 1.451 1.338.139 0 1.221-.97 2.441-2.145 4.492-4.36 7.992-6.09 15.224-7.452.88-.162 26.679-.323 26.717-.162 0 .07-.967 2.815-2.165 6.137l-.628 1.777c-.933 2.64-1.744 4.938-1.952 5.468-.23.668-.483 1.222-.575 1.222-.094-.002-.831-1.016-1.682-2.26-2.395-3.577-3.823-4.823-7.001-6.23-4.929-2.169-11.24-2.538-15.846-.877-3.178 1.13-6.15 3.668-7.946 6.83-1.059 1.868-2.764 6.896-3.109 9.227-.069.438-.161.947-.231 1.13-.529 1.547-.529 9.02-.023 11.79l.107.552c.421 2.192.437 2.275 1.206 4.522 1.106 3.322 2.902 6.76 4.951 9.574 4.1 5.56 9.674 8.19 17.067 8.075 2.833-.047 4.077-.323 4.952-1.085 1.175-1.06 1.198-1.384 1.198-11.004 0-8.605-.023-8.951-.507-10.058-.714-1.684-2.856-2.907-4.698-2.746-.576.07-.645 0-.576-.553l.069-.623h6.034c5.665 0 6.035.023 6.518.46 1.198 1.085 1.244 1.385 1.29 11.328.046 7.683.115 9.482.415 10.728.621 2.353 1.773 4.383 3.708 6.344l.921.947-6.564.045c-14.902.138-17.804.092-20.038-.3a23.43 23.43 0 0 0-1.112-.188l-.269-.043c-2.925-.46-6.772-1.684-9.328-2.953-6.242-3.137-10.779-8.674-12.852-15.664-.507-1.66-.668-2.307-.99-3.783a28.563 28.563 0 0 1-.184-1.27l-.035-.218a49.82 49.82 0 0 1-.449-3.242c-.092-.692-.23-1.338-.3-1.43-.093-.092-1.083.023-2.234.277-5.55 1.13-10.986 2.307-11.17 2.422-.184.116-.921-.484-.921-.76 0-.093.806-.462 1.796-.809 5.113-1.89 8.407-5.236 9.558-9.689.438-1.66.438-5.537.023-7.544-.898-4.29-3.155-7.382-6.656-9.089-1.428-.692-2.556-1.061-4.49-1.453-1.037-.208-3.548-.139-4.607.161-1.497.392-3.34 1.73-4.56 3.253l-1.06 1.316-.645-1.109c-1.405-2.468-3.778-3.575-7.555-3.53-.466.016-1.276.032-2.085.047l-1.14.023c-2.509.046-3.522-.115-4.996-.83-1.566-.739-3.5-3.069-3.11-3.715.094-.138.945-.323 1.89-.415.943-.092 1.772-.184 1.84-.23.072-.047.855-.139 1.73-.23l.729-.075c.487-.046.973-.098 1.458-.157.208-.015.695-.068 1.25-.13.303-.032.628-.068.938-.1.378-.04.782-.078 1.149-.114.504-.049.94-.09 1.154-.117.253-.03.814-.08 1.451-.135.35-.03.725-.064 1.083-.096 1.011-.091 1.885-.207 1.934-.253Zm-36.942 6.961c-.6-.137-2.879.3-3.523.67-.507.3-.76.692-.92 1.36-.23.97-.21 21.755.022 22.678.437 1.776 1.151 2.03 5.688 2.007 3.156-.023 3.732-.069 4.93-.552 2.37-.923 3.96-2.77 4.951-5.723 2.28-6.736 1.313-12.78-2.672-16.772-1.773-1.799-4.652-3.206-7.047-3.483-.668-.07-1.29-.138-1.428-.185Zm39.754-14.441c2.51 0 3.407.07 3.477.277.069.256.069 2.584-.023 3.69-.023.347-.392.37-3.409.348l-3.408-.047-.023-2.146v-2.122h3.386Zm-1.775-6.065c1.243-.254 3.454-.14 4.192.207 1.013.485 1.381 1.593.967 2.884l-.208.6-3.2-.022h-3.18l-.137-.623c-.277-1.384.46-2.84 1.566-3.046Zm2.627-5.809c.23-.207 1.98.508 2.348.969.415.554.53 2.376.14 2.768-.209.231-6.38.231-6.52 0-.045-.092-.114-.669-.114-1.245 0-1.546.691-2.146 2.602-2.307.806-.07 1.497-.162 1.544-.185Zm3.316-5.66-.162.74c-.09.415-.368 1.291-.62 1.961-.485 1.292-.716 1.43-2.904 1.568-1.335.093-3.498-.438-3.523-.876 0-.12-.026-.305-.048-.468l-.008-.056-.01-.071-.003-.028c-.047-.185-.162-.899-.253-1.569l-.162-1.2h7.693Zm.437-7.448c.484.852.875 1.683.9 1.823 0 .46-2.81 2.906-3.87 3.391-.646.277-1.544.438-2.374.438-2.256 0-3.638-1.107-4.79-3.806l-.46-1.085.506-.323c.277-.184.92-.553 1.429-.807l.92-.484.668.807c1.705 2.122 3.685 1.96 5.413-.461l.76-1.085.898 1.592Z"/></svg>
